<svg width="490" height="40" viewBox="0 0 490 40" fill="none" xmlns="http://www.w3.org/2000/svg">
<path d="M17.7853 39H9.66869C6.50921 39 4.0579 36.6032 4.0579 33.3892V6.42473C4.0579 3.26526 6.50921 0.868417 9.66869 0.868417H17.7853C29.715 0.868417 38.0495 8.49474 38.0495 19.9342C38.0495 31.3737 29.715 39 17.7853 39ZM15.225 11.2184V28.65H17.8397C23.3416 28.65 26.8824 25.4361 26.8824 19.9342C26.8824 14.4324 23.3416 11.2184 17.8397 11.2184H15.225ZM57.0123 39.5992C47.6973 39.5992 40.9425 33.5526 40.9425 23.7474V6.09789C40.9425 2.775 43.3394 0.378154 46.5533 0.378154C49.7128 0.378154 52.1096 2.775 52.1096 6.09789V23.8563C52.1096 26.9068 53.9618 29.1403 57.0123 29.1403C60.0083 29.1403 61.8604 26.9068 61.8604 23.8563V6.09789C61.8604 2.775 64.2573 0.378154 67.4712 0.378154C70.6307 0.378154 73.0275 2.775 73.0275 6.09789V23.7474C73.0275 33.5526 66.2728 39.5992 57.0123 39.5992ZM82.5868 39.4903C79.2095 39.4903 76.976 36.9845 76.976 33.6071V5.88C76.976 2.72052 79.3729 0.378154 82.4779 0.378154C84.8747 0.378154 86.4545 1.41315 87.9252 3.31973L97.5671 16.3389C98.6021 17.7008 99.6916 19.1716 100.672 20.6968V6.26131C100.672 2.88394 102.906 0.378154 106.283 0.378154C109.606 0.378154 111.839 2.88394 111.839 6.26131V33.9884C111.839 37.1479 109.442 39.4903 106.392 39.4903C103.941 39.4903 102.361 38.4553 100.944 36.5487L91.1937 23.8563C90.1587 22.5489 89.1237 21.0782 88.1431 19.7708V33.6071C88.1431 36.9845 85.9097 39.4903 82.5868 39.4903ZM121.387 39.4903C118.173 39.4903 115.776 37.0389 115.776 33.825V6.04342C115.776 2.82947 118.173 0.378154 121.387 0.378154C124.601 0.378154 126.943 2.82947 126.943 6.04342V15.9576C127.869 14.6503 128.414 13.7242 129.285 12.3624L135.277 2.775C136.312 1.14079 138.11 0.378154 139.853 0.378154C142.958 0.378154 145.573 2.66605 145.573 6.09789C145.573 7.62315 144.647 9.09394 143.666 10.5103L137.293 19.6074L144.374 29.3582C145.409 30.7745 146.063 32.1908 146.063 33.6071C146.063 36.8755 143.83 39.4903 140.18 39.4903C138.437 39.4903 136.639 38.8366 135.332 36.7121L129.285 26.9613C128.414 25.5995 127.923 24.6189 126.943 23.3661V33.825C126.943 37.0389 124.601 39.4903 121.387 39.4903ZM153.856 39.4903C150.642 39.4903 148.245 37.0389 148.245 33.825V6.04342C148.245 2.82947 150.642 0.378154 153.856 0.378154C157.07 0.378154 159.412 2.82947 159.412 6.04342V33.825C159.412 37.0389 157.07 39.4903 153.856 39.4903ZM168.983 39.4903C165.606 39.4903 163.372 36.9845 163.372 33.6071V5.88C163.372 2.72052 165.769 0.378154 168.874 0.378154C171.271 0.378154 172.851 1.41315 174.321 3.31973L183.963 16.3389C184.998 17.7008 186.088 19.1716 187.068 20.6968V6.26131C187.068 2.88394 189.302 0.378154 192.679 0.378154C196.002 0.378154 198.235 2.88394 198.235 6.26131V33.9884C198.235 37.1479 195.838 39.4903 192.788 39.4903C190.337 39.4903 188.757 38.4553 187.341 36.5487L177.59 23.8563C176.555 22.5489 175.52 21.0782 174.539 19.7708V33.6071C174.539 36.9845 172.306 39.4903 168.983 39.4903Z" fill="#F06000"/>
<path d="M206.965 16.0666C204.895 16.0666 203.479 14.7047 203.207 12.5803C202.989 11.3818 202.88 10.02 202.88 8.33131C202.88 6.80605 202.989 5.38973 203.261 4.24579C203.642 1.74 205.494 0.269208 207.946 0.269208C210.615 0.269208 212.903 2.06684 212.903 5.00842C212.903 5.60763 212.739 6.6971 212.522 7.56868L211.323 11.8721C210.561 14.6503 209.253 16.0666 206.965 16.0666ZM250.572 24.6734L254.658 29.7939C255.584 30.8834 256.238 32.3542 256.238 33.9339C256.238 37.2568 253.786 39.4358 250.79 39.4358C248.393 39.4358 246.705 38.0739 245.288 35.9495L239.187 27.0158H237.717V33.825C237.717 37.0389 235.374 39.4903 232.16 39.4903C228.946 39.4903 226.549 37.0389 226.549 33.825V6.15236C226.549 3.10184 228.892 0.868417 231.888 0.868417H241.911C250.518 0.868417 256.074 6.42473 256.074 14.051C256.074 18.6813 254.059 22.44 250.572 24.6734ZM241.039 9.96552H237.717V18.1366H241.039C243.436 18.1366 245.234 16.5024 245.234 14.051C245.234 11.5453 243.436 9.96552 241.039 9.96552ZM282.589 39H265.43C262.434 39 260.091 36.7666 260.091 33.7161V6.15236C260.091 3.10184 262.434 0.868417 265.43 0.868417H282.589C285.421 0.868417 287.655 2.99289 287.655 5.82552C287.655 8.65815 285.421 10.7826 282.589 10.7826H271.258V14.9771H279.102C281.663 14.9771 283.569 16.8837 283.569 19.3895C283.569 21.8953 281.663 23.8018 279.102 23.8018H271.258V29.0858H282.589C285.421 29.0858 287.655 31.2103 287.655 34.0429C287.655 36.8755 285.421 39 282.589 39ZM304.479 39.4358C301.21 39.4358 299.031 37.3658 298.105 34.6421L289.281 9.20289C288.899 8.16789 288.681 7.02395 288.681 6.20684C288.681 2.93842 291.187 0.378154 294.619 0.378154C297.561 0.378154 299.467 1.84894 300.284 4.6271L303.498 15.3039C303.988 16.7747 304.37 18.0276 304.751 19.335C305.132 18.0276 305.459 16.9382 306.004 15.195L308.946 5.38973C309.981 2.06684 312.105 0.378154 315.101 0.378154C318.043 0.378154 320.167 2.06684 321.202 5.38973L324.144 15.195C324.688 16.9382 325.015 18.0276 325.397 19.335L326.595 15.3039L329.863 4.6271C330.681 1.84894 332.587 0.378154 335.529 0.378154C338.961 0.378154 341.466 2.93842 341.466 6.20684C341.466 7.02395 341.248 8.16789 340.867 9.20289L332.042 34.6421C331.116 37.3658 328.937 39.4358 325.669 39.4358C322.346 39.4358 320.439 37.6382 319.568 34.7511L315.101 19.0626L310.58 34.7511C309.708 37.6382 307.802 39.4358 304.479 39.4358ZM344.053 39.5992C341.002 39.5992 338.714 37.0934 338.714 34.3153C338.714 33.5526 338.878 32.79 339.204 32.0274L350.644 5.28079C351.897 2.33921 353.476 0.378154 356.745 0.378154C360.068 0.378154 361.593 2.33921 362.846 5.28079L374.34 32.0274C374.612 32.7355 374.83 33.5526 374.83 34.3153C374.83 37.0934 372.542 39.5992 369.546 39.5992C366.986 39.5992 365.188 38.3463 364.371 36.1129L363.173 32.8989H350.371L349.173 36.1129C348.356 38.3463 346.558 39.5992 344.053 39.5992ZM356.745 14.9771L353.368 24.2921H360.177L356.745 14.9771ZM401.869 24.6734L405.954 29.7939C406.88 30.8834 407.534 32.3542 407.534 33.9339C407.534 37.2568 405.083 39.4358 402.087 39.4358C399.69 39.4358 398.001 38.0739 396.585 35.9495L390.484 27.0158H389.013V33.825C389.013 37.0389 386.671 39.4903 383.457 39.4903C380.243 39.4903 377.846 37.0389 377.846 33.825V6.15236C377.846 3.10184 380.188 0.868417 383.184 0.868417H393.207C401.814 0.868417 407.371 6.42473 407.371 14.051C407.371 18.6813 405.355 22.44 401.869 24.6734ZM392.336 9.96552H389.013V18.1366H392.336C394.733 18.1366 396.53 16.5024 396.53 14.051C396.53 11.5453 394.733 9.96552 392.336 9.96552ZM425.115 39H416.998C413.839 39 411.388 36.6032 411.388 33.3892V6.42473C411.388 3.26526 413.839 0.868417 416.998 0.868417H425.115C437.045 0.868417 445.379 8.49474 445.379 19.9342C445.379 31.3737 437.045 39 425.115 39ZM422.555 11.2184V28.65H425.169C430.671 28.65 434.212 25.4361 434.212 19.9342C434.212 14.4324 430.671 11.2184 425.169 11.2184H422.555ZM461.513 39.5992C455.956 39.5992 451.49 37.8016 448.657 34.3153C447.513 32.9534 446.968 31.3192 446.968 29.9029C446.968 26.9613 449.365 24.4555 452.361 24.4555C454.431 24.4555 456.065 25.3816 457.264 27.2337C458.19 28.7045 459.715 29.8484 461.622 29.8484C463.31 29.8484 464.345 29.0313 464.345 27.7784C464.345 26.3621 462.984 25.4361 460.968 24.6189L455.739 22.4945C450.781 20.4789 448.003 17.2105 448.003 11.9811C448.003 4.845 453.941 0.269208 462.003 0.269208C467.069 0.269208 471.1 1.68552 473.824 5.00842C474.804 6.15236 475.349 7.51421 475.349 8.82158C475.349 11.9266 473.116 14.2689 470.12 14.2689C468.485 14.2689 467.015 13.3974 465.707 11.7632C464.454 10.1289 463.31 9.25737 461.567 9.25737C460.096 9.25737 458.898 10.1289 458.898 11.3818C458.898 12.7437 460.096 13.5063 462.33 14.3234L466.524 15.9576C472.734 18.3 475.839 21.0782 475.839 27.5061C475.839 34.1518 470.501 39.5992 461.513 39.5992Z" fill="#C63663"/>
<path d="M483.225 39.1396C480.635 39.1396 478.553 37.0958 478.553 34.5568C478.553 32.0179 480.635 29.974 483.225 29.974C485.827 29.974 487.909 32.0179 487.909 34.5568C487.909 37.0958 485.827 39.1396 483.225 39.1396ZM483.225 37.959C485.104 37.959 486.627 36.4357 486.627 34.5568C486.627 32.678 485.104 31.1547 483.225 31.1547C481.346 31.1547 479.823 32.678 479.823 34.5568C479.823 36.4357 481.346 37.959 483.225 37.959ZM482.146 36.8927C481.79 36.8927 481.537 36.6388 481.537 36.2579V32.8684C481.537 32.5003 481.803 32.221 482.184 32.221H483.53C484.418 32.221 485.104 32.8811 485.104 33.7952C485.104 34.3664 484.837 34.8361 484.431 35.1027L485.015 35.8898C485.104 36.004 485.167 36.131 485.167 36.2833C485.167 36.6134 484.939 36.8927 484.558 36.8927C484.317 36.8927 484.139 36.7911 484.012 36.6134L483.085 35.3693H482.768V36.2579C482.768 36.6388 482.514 36.8927 482.146 36.8927ZM482.768 33.2874V34.3029H483.288C483.593 34.3029 483.809 34.1252 483.809 33.7952C483.809 33.4651 483.593 33.2874 483.288 33.2874H482.768Z" fill="#C63663"/>
</svg>
